<svg width="136" height="136" viewBox="0 0 136 136" fill="none" xmlns="http://www.w3.org/2000/svg">
<circle cx="68" cy="68" r="68" fill="#FEA130"/>
<path d="M136 68C136 53.6398 131.454 39.6482 123.013 28.0306L68 68H136Z" fill="#C76E01"/>
<path d="M136 68C136 81.4491 132.012 94.5962 124.54 105.779C117.068 116.961 106.448 125.677 94.0225 130.824C81.5971 135.971 67.9246 137.317 54.7339 134.693C41.5431 132.07 29.4267 125.593 19.9167 116.083C10.4068 106.573 3.9304 94.4568 1.3066 81.2661C-1.31719 68.0754 0.0294328 54.4029 5.17619 41.9775C10.323 29.5522 19.0387 18.932 30.2212 11.4601C41.4038 3.98813 54.5509 -1.60379e-07 68 0V68H136Z" fill="#FEB863"/>
<circle cx="68" cy="68" r="24" fill="#FFFDFB"/>
</svg>
