<svg width="412" height="288" viewBox="0 0 412 288" fill="none" xmlns="http://www.w3.org/2000/svg">
<rect width="412" height="288" rx="10" fill="#E4E0E9"/>
<path d="M8.05063 19.576H8.85063L8.81863 27.896H11.3146V29H4.91463V27.896H7.57063L7.58663 21.448L5.29863 23.336L4.59463 22.472L8.05063 19.576ZM15.9083 19.336C16.4736 19.336 16.9856 19.4213 17.4443 19.592C17.9029 19.7627 18.2976 20.04 18.6283 20.424C18.9696 20.808 19.2309 21.32 19.4123 21.96C19.5936 22.5893 19.6843 23.368 19.6843 24.296C19.6843 25.2133 19.5936 25.992 19.4123 26.632C19.2309 27.2613 18.9696 27.768 18.6283 28.152C18.2976 28.536 17.9029 28.8133 17.4443 28.984C16.9856 29.1547 16.4736 29.24 15.9083 29.24C15.3536 29.24 14.8469 29.1547 14.3883 28.984C13.9296 28.8133 13.5296 28.536 13.1883 28.152C12.8576 27.768 12.6016 27.2613 12.4203 26.632C12.2389 25.992 12.1483 25.2133 12.1483 24.296C12.1483 23.368 12.2389 22.5893 12.4203 21.96C12.6016 21.32 12.8576 20.808 13.1883 20.424C13.5296 20.04 13.9296 19.7627 14.3883 19.592C14.8469 19.4213 15.3536 19.336 15.9083 19.336ZM15.9243 20.424C15.5936 20.424 15.2789 20.4827 14.9803 20.6C14.6923 20.7067 14.4416 20.8987 14.2283 21.176C14.0149 21.4533 13.8443 21.848 13.7163 22.36C13.5989 22.8613 13.5403 23.5067 13.5403 24.296C13.5403 25.0747 13.5989 25.72 13.7163 26.232C13.8443 26.7333 14.0149 27.1227 14.2283 27.4C14.4416 27.6773 14.6923 27.8747 14.9803 27.992C15.2789 28.0987 15.5936 28.152 15.9243 28.152C16.2549 28.152 16.5643 28.0987 16.8523 27.992C17.1403 27.8747 17.3909 27.6773 17.6043 27.4C17.8283 27.1227 17.9989 26.7333 18.1163 26.232C18.2443 25.72 18.3083 25.0747 18.3083 24.296C18.3083 23.5067 18.2443 22.8613 18.1163 22.36C17.9989 21.848 17.8283 21.4533 17.6043 21.176C17.3909 20.8987 17.1403 20.7067 16.8523 20.6C16.5643 20.4827 16.2549 20.424 15.9243 20.424ZM25.4239 19.336C25.9892 19.336 26.5012 19.4213 26.9599 19.592C27.4185 19.7627 27.8132 20.04 28.1439 20.424C28.4852 20.808 28.7465 21.32 28.9279 21.96C29.1092 22.5893 29.1999 23.368 29.1999 24.296C29.1999 25.2133 29.1092 25.992 28.9279 26.632C28.7465 27.2613 28.4852 27.768 28.1439 28.152C27.8132 28.536 27.4185 28.8133 26.9599 28.984C26.5012 29.1547 25.9892 29.24 25.4239 29.24C24.8692 29.24 24.3625 29.1547 23.9039 28.984C23.4452 28.8133 23.0452 28.536 22.7039 28.152C22.3732 27.768 22.1172 27.2613 21.9359 26.632C21.7545 25.992 21.6639 25.2133 21.6639 24.296C21.6639 23.368 21.7545 22.5893 21.9359 21.96C22.1172 21.32 22.3732 20.808 22.7039 20.424C23.0452 20.04 23.4452 19.7627 23.9039 19.592C24.3625 19.4213 24.8692 19.336 25.4239 19.336ZM25.4399 20.424C25.1092 20.424 24.7945 20.4827 24.4959 20.6C24.2079 20.7067 23.9572 20.8987 23.7439 21.176C23.5305 21.4533 23.3599 21.848 23.2319 22.36C23.1145 22.8613 23.0559 23.5067 23.0559 24.296C23.0559 25.0747 23.1145 25.72 23.2319 26.232C23.3599 26.7333 23.5305 27.1227 23.7439 27.4C23.9572 27.6773 24.2079 27.8747 24.4959 27.992C24.7945 28.0987 25.1092 28.152 25.4399 28.152C25.7705 28.152 26.0799 28.0987 26.3679 27.992C26.6559 27.8747 26.9065 27.6773 27.1199 27.4C27.3439 27.1227 27.5145 26.7333 27.6319 26.232C27.7599 25.72 27.8239 25.0747 27.8239 24.296C27.8239 23.5067 27.7599 22.8613 27.6319 22.36C27.5145 21.848 27.3439 21.4533 27.1199 21.176C26.9065 20.8987 26.6559 20.7067 26.3679 20.6C26.0799 20.4827 25.7705 20.424 25.4399 20.424ZM30.7155 18.584L33.1475 19.416V25.016H34.6035L35.7075 23.128H34.8755V22.136H38.2355V23.128H36.8915L35.5635 25.416L37.1155 28.008H38.4915V29H36.3635L34.5555 26.008H33.1475V28.008H33.8675V29H30.5555V28.008H31.8995V20.104L30.3795 19.576L30.7155 18.584ZM16.3963 59.336C16.9829 59.336 17.5109 59.4427 17.9803 59.656C18.4603 59.8587 18.8443 60.1627 19.1323 60.568C19.4203 60.9627 19.5643 61.4533 19.5643 62.04C19.5643 62.3387 19.5003 62.632 19.3723 62.92C19.2549 63.208 19.0736 63.4587 18.8283 63.672C18.5936 63.8853 18.3056 64.04 17.9643 64.136C18.3056 64.1893 18.6096 64.3227 18.8763 64.536C19.1429 64.7493 19.3509 65.0213 19.5003 65.352C19.6603 65.672 19.7403 66.0187 19.7403 66.392C19.7403 67.0213 19.5803 67.5493 19.2603 67.976C18.9509 68.4027 18.5456 68.7227 18.0443 68.936C17.5429 69.1387 16.9989 69.24 16.4123 69.24C15.8363 69.24 15.2923 69.1387 14.7803 68.936C14.2789 68.7227 13.8683 68.4027 13.5483 67.976C13.2389 67.5493 13.0843 67.0213 13.0843 66.392C13.0843 66.0187 13.1589 65.672 13.3083 65.352C13.4683 65.0213 13.6816 64.7493 13.9483 64.536C14.2149 64.3227 14.5189 64.1893 14.8603 64.136C14.5189 64.04 14.2256 63.8853 13.9803 63.672C13.7456 63.4587 13.5643 63.208 13.4363 62.92C13.3189 62.632 13.2603 62.3387 13.2603 62.04C13.2603 61.4533 13.3989 60.9627 13.6763 60.568C13.9643 60.1627 14.3483 59.8587 14.8283 59.656C15.3083 59.4427 15.8309 59.336 16.3963 59.336ZM16.4123 64.68C15.7616 64.68 15.2709 64.8453 14.9403 65.176C14.6203 65.5067 14.4603 65.912 14.4603 66.392C14.4603 66.904 14.6416 67.3253 15.0043 67.656C15.3669 67.9867 15.8363 68.152 16.4123 68.152C16.9883 68.152 17.4576 67.9867 17.8203 67.656C18.1829 67.3253 18.3643 66.904 18.3643 66.392C18.3643 65.912 18.2043 65.5067 17.8843 65.176C17.5643 64.8453 17.0736 64.68 16.4123 64.68ZM16.4123 60.424C15.8469 60.424 15.4043 60.5787 15.0843 60.888C14.7749 61.1973 14.6203 61.5813 14.6203 62.04C14.6203 62.4987 14.7749 62.8827 15.0843 63.192C15.4043 63.5013 15.8469 63.656 16.4123 63.656C16.9776 63.656 17.4149 63.5013 17.7243 63.192C18.0443 62.8827 18.2043 62.4987 18.2043 62.04C18.2043 61.5813 18.0443 61.1973 17.7243 60.888C17.4149 60.5787 16.9776 60.424 16.4123 60.424ZM25.4239 59.336C25.9892 59.336 26.5012 59.4213 26.9599 59.592C27.4185 59.7627 27.8132 60.04 28.1439 60.424C28.4852 60.808 28.7465 61.32 28.9279 61.96C29.1092 62.5893 29.1999 63.368 29.1999 64.296C29.1999 65.2133 29.1092 65.992 28.9279 66.632C28.7465 67.2613 28.4852 67.768 28.1439 68.152C27.8132 68.536 27.4185 68.8133 26.9599 68.984C26.5012 69.1547 25.9892 69.24 25.4239 69.24C24.8692 69.24 24.3625 69.1547 23.9039 68.984C23.4452 68.8133 23.0452 68.536 22.7039 68.152C22.3732 67.768 22.1172 67.2613 21.9359 66.632C21.7545 65.992 21.6639 65.2133 21.6639 64.296C21.6639 63.368 21.7545 62.5893 21.9359 61.96C22.1172 61.32 22.3732 60.808 22.7039 60.424C23.0452 60.04 23.4452 59.7627 23.9039 59.592C24.3625 59.4213 24.8692 59.336 25.4239 59.336ZM25.4399 60.424C25.1092 60.424 24.7945 60.4827 24.4959 60.6C24.2079 60.7067 23.9572 60.8987 23.7439 61.176C23.5305 61.4533 23.3599 61.848 23.2319 62.36C23.1145 62.8613 23.0559 63.5067 23.0559 64.296C23.0559 65.0747 23.1145 65.72 23.2319 66.232C23.3599 66.7333 23.5305 67.1227 23.7439 67.4C23.9572 67.6773 24.2079 67.8747 24.4959 67.992C24.7945 68.0987 25.1092 68.152 25.4399 68.152C25.7705 68.152 26.0799 68.0987 26.3679 67.992C26.6559 67.8747 26.9065 67.6773 27.1199 67.4C27.3439 67.1227 27.5145 66.7333 27.6319 66.232C27.7599 65.72 27.8239 65.0747 27.8239 64.296C27.8239 63.5067 27.7599 62.8613 27.6319 62.36C27.5145 61.848 27.3439 61.4533 27.1199 61.176C26.9065 60.8987 26.6559 60.7067 26.3679 60.6C26.0799 60.4827 25.7705 60.424 25.4399 60.424ZM30.7155 58.584L33.1475 59.416V65.016H34.6035L35.7075 63.128H34.8755V62.136H38.2355V63.128H36.8915L35.5635 65.416L37.1155 68.008H38.4915V69H36.3635L34.5555 66.008H33.1475V68.008H33.8675V69H30.5555V68.008H31.8995V60.104L30.3795 59.576L30.7155 58.584ZM18.9314 101C18.9314 101 18.83 100.952 18.6274 100.856C18.4354 100.76 18.1954 100.664 17.9074 100.568C17.63 100.472 17.3527 100.424 17.0754 100.424C16.5207 100.424 16.062 100.541 15.6994 100.776C15.3367 101.011 15.0487 101.32 14.8354 101.704C14.622 102.077 14.4674 102.488 14.3714 102.936C14.2754 103.384 14.222 103.821 14.2114 104.248C14.414 103.971 14.7394 103.709 15.1874 103.464C15.646 103.219 16.1687 103.096 16.7554 103.096C17.2994 103.096 17.8114 103.187 18.2914 103.368C18.782 103.539 19.182 103.848 19.4914 104.296C19.8007 104.733 19.9554 105.357 19.9554 106.168C19.9554 106.445 19.902 106.76 19.7954 107.112C19.6994 107.464 19.5234 107.805 19.2674 108.136C19.022 108.456 18.67 108.723 18.2114 108.936C17.7634 109.139 17.1874 109.24 16.4834 109.24C15.246 109.24 14.334 108.824 13.7474 107.992C13.1714 107.149 12.8834 105.944 12.8834 104.376C12.8834 103.459 13.0487 102.621 13.3794 101.864C13.7207 101.096 14.2007 100.483 14.8194 100.024C15.438 99.5653 16.1794 99.336 17.0434 99.336C17.5234 99.336 17.9447 99.4 18.3074 99.528C18.6807 99.6453 18.974 99.768 19.1874 99.896C19.4007 100.013 19.5074 100.072 19.5074 100.072L18.9314 101ZM16.7554 104.184C16.1687 104.184 15.646 104.285 15.1874 104.488C14.7394 104.68 14.4247 104.957 14.2434 105.32C14.3074 106.141 14.4567 106.755 14.6914 107.16C14.9367 107.565 15.2247 107.832 15.5554 107.96C15.8967 108.088 16.2434 108.152 16.5954 108.152C17.0647 108.152 17.4487 108.051 17.7474 107.848C18.046 107.645 18.27 107.395 18.4194 107.096C18.5687 106.787 18.6434 106.477 18.6434 106.168C18.6434 105.539 18.4887 105.053 18.1794 104.712C17.87 104.36 17.3954 104.184 16.7554 104.184ZM25.4239 99.336C25.9892 99.336 26.5012 99.4213 26.9599 99.592C27.4185 99.7627 27.8132 100.04 28.1439 100.424C28.4852 100.808 28.7465 101.32 28.9279 101.96C29.1092 102.589 29.1999 103.368 29.1999 104.296C29.1999 105.213 29.1092 105.992 28.9279 106.632C28.7465 107.261 28.4852 107.768 28.1439 108.152C27.8132 108.536 27.4185 108.813 26.9599 108.984C26.5012 109.155 25.9892 109.24 25.4239 109.24C24.8692 109.24 24.3625 109.155 23.9039 108.984C23.4452 108.813 23.0452 108.536 22.7039 108.152C22.3732 107.768 22.1172 107.261 21.9359 106.632C21.7545 105.992 21.6639 105.213 21.6639 104.296C21.6639 103.368 21.7545 102.589 21.9359 101.96C22.1172 101.32 22.3732 100.808 22.7039 100.424C23.0452 100.04 23.4452 99.7627 23.9039 99.592C24.3625 99.4213 24.8692 99.336 25.4239 99.336ZM25.4399 100.424C25.1092 100.424 24.7945 100.483 24.4959 100.6C24.2079 100.707 23.9572 100.899 23.7439 101.176C23.5305 101.453 23.3599 101.848 23.2319 102.36C23.1145 102.861 23.0559 103.507 23.0559 104.296C23.0559 105.075 23.1145 105.72 23.2319 106.232C23.3599 106.733 23.5305 107.123 23.7439 107.4C23.9572 107.677 24.2079 107.875 24.4959 107.992C24.7945 108.099 25.1092 108.152 25.4399 108.152C25.7705 108.152 26.0799 108.099 26.3679 107.992C26.6559 107.875 26.9065 107.677 27.1199 107.4C27.3439 107.123 27.5145 106.733 27.6319 106.232C27.7599 105.72 27.8239 105.075 27.8239 104.296C27.8239 103.507 27.7599 102.861 27.6319 102.36C27.5145 101.848 27.3439 101.453 27.1199 101.176C26.9065 100.899 26.6559 100.707 26.3679 100.6C26.0799 100.483 25.7705 100.424 25.4399 100.424ZM30.7155 98.584L33.1475 99.416V105.016H34.6035L35.7075 103.128H34.8755V102.136H38.2355V103.128H36.8915L35.5635 105.416L37.1155 108.008H38.4915V109H36.3635L34.5555 106.008H33.1475V108.008H33.8675V109H30.5555V108.008H31.8995V100.104L30.3795 99.576L30.7155 98.584ZM15.7083 149V147.896H17.3883V146.36H12.5723L12.5563 145.768L15.7883 139.048L16.8443 139.64L14.1403 145.272H17.3883V140.968H18.6843L18.6683 145.272L20.1723 145.256V146.36H18.6683V147.896H20.1083V149H15.7083ZM25.4239 139.336C25.9892 139.336 26.5012 139.421 26.9599 139.592C27.4185 139.763 27.8132 140.04 28.1439 140.424C28.4852 140.808 28.7465 141.32 28.9279 141.96C29.1092 142.589 29.1999 143.368 29.1999 144.296C29.1999 145.213 29.1092 145.992 28.9279 146.632C28.7465 147.261 28.4852 147.768 28.1439 148.152C27.8132 148.536 27.4185 148.813 26.9599 148.984C26.5012 149.155 25.9892 149.24 25.4239 149.24C24.8692 149.24 24.3625 149.155 23.9039 148.984C23.4452 148.813 23.0452 148.536 22.7039 148.152C22.3732 147.768 22.1172 147.261 21.9359 146.632C21.7545 145.992 21.6639 145.213 21.6639 144.296C21.6639 143.368 21.7545 142.589 21.9359 141.96C22.1172 141.32 22.3732 140.808 22.7039 140.424C23.0452 140.04 23.4452 139.763 23.9039 139.592C24.3625 139.421 24.8692 139.336 25.4239 139.336ZM25.4399 140.424C25.1092 140.424 24.7945 140.483 24.4959 140.6C24.2079 140.707 23.9572 140.899 23.7439 141.176C23.5305 141.453 23.3599 141.848 23.2319 142.36C23.1145 142.861 23.0559 143.507 23.0559 144.296C23.0559 145.075 23.1145 145.72 23.2319 146.232C23.3599 146.733 23.5305 147.123 23.7439 147.4C23.9572 147.677 24.2079 147.875 24.4959 147.992C24.7945 148.099 25.1092 148.152 25.4399 148.152C25.7705 148.152 26.0799 148.099 26.3679 147.992C26.6559 147.875 26.9065 147.677 27.1199 147.4C27.3439 147.123 27.5145 146.733 27.6319 146.232C27.7599 145.72 27.8239 145.075 27.8239 144.296C27.8239 143.507 27.7599 142.861 27.6319 142.36C27.5145 141.848 27.3439 141.453 27.1199 141.176C26.9065 140.899 26.6559 140.707 26.3679 140.6C26.0799 140.483 25.7705 140.424 25.4399 140.424ZM30.7155 138.584L33.1475 139.416V145.016H34.6035L35.7075 143.128H34.8755V142.136H38.2355V143.128H36.8915L35.5635 145.416L37.1155 148.008H38.4915V149H36.3635L34.5555 146.008H33.1475V148.008H33.8675V149H30.5555V148.008H31.8995V140.104L30.3795 139.576L30.7155 138.584ZM13.2573 189L12.8253 187.72C13.6466 186.973 14.4146 186.323 15.1293 185.768C15.8439 185.213 16.4466 184.696 16.9373 184.216C17.3106 183.864 17.5986 183.523 17.8013 183.192C18.0146 182.851 18.1266 182.499 18.1373 182.136C18.1479 181.571 17.9666 181.149 17.5933 180.872C17.2199 180.584 16.7719 180.44 16.2493 180.44C15.8759 180.44 15.4866 180.515 15.0813 180.664C14.6866 180.813 14.3293 181.043 14.0093 181.352L13.2093 180.6C13.6466 180.131 14.1426 179.789 14.6973 179.576C15.2519 179.363 15.8013 179.256 16.3453 179.256C16.8999 179.256 17.4173 179.363 17.8973 179.576C18.3773 179.789 18.7613 180.099 19.0493 180.504C19.3479 180.899 19.4973 181.389 19.4973 181.976C19.4973 182.477 19.3373 182.968 19.0173 183.448C18.6973 183.928 18.2866 184.408 17.7853 184.888C17.2733 185.379 16.7026 185.875 16.0733 186.376C15.4439 186.867 14.8306 187.373 14.2333 187.896H18.6173L19.4493 186.568L20.3612 187.048L19.2253 189H13.2573ZM25.4239 179.336C25.9892 179.336 26.5012 179.421 26.9599 179.592C27.4185 179.763 27.8132 180.04 28.1439 180.424C28.4852 180.808 28.7465 181.32 28.9279 181.96C29.1092 182.589 29.1999 183.368 29.1999 184.296C29.1999 185.213 29.1092 185.992 28.9279 186.632C28.7465 187.261 28.4852 187.768 28.1439 188.152C27.8132 188.536 27.4185 188.813 26.9599 188.984C26.5012 189.155 25.9892 189.24 25.4239 189.24C24.8692 189.24 24.3625 189.155 23.9039 188.984C23.4452 188.813 23.0452 188.536 22.7039 188.152C22.3732 187.768 22.1172 187.261 21.9359 186.632C21.7545 185.992 21.6639 185.213 21.6639 184.296C21.6639 183.368 21.7545 182.589 21.9359 181.96C22.1172 181.32 22.3732 180.808 22.7039 180.424C23.0452 180.04 23.4452 179.763 23.9039 179.592C24.3625 179.421 24.8692 179.336 25.4239 179.336ZM25.4399 180.424C25.1092 180.424 24.7945 180.483 24.4959 180.6C24.2079 180.707 23.9572 180.899 23.7439 181.176C23.5305 181.453 23.3599 181.848 23.2319 182.36C23.1145 182.861 23.0559 183.507 23.0559 184.296C23.0559 185.075 23.1145 185.72 23.2319 186.232C23.3599 186.733 23.5305 187.123 23.7439 187.4C23.9572 187.677 24.2079 187.875 24.4959 187.992C24.7945 188.099 25.1092 188.152 25.4399 188.152C25.7705 188.152 26.0799 188.099 26.3679 187.992C26.6559 187.875 26.9065 187.677 27.1199 187.4C27.3439 187.123 27.5145 186.733 27.6319 186.232C27.7599 185.72 27.8239 185.075 27.8239 184.296C27.8239 183.507 27.7599 182.861 27.6319 182.36C27.5145 181.848 27.3439 181.453 27.1199 181.176C26.9065 180.899 26.6559 180.707 26.3679 180.6C26.0799 180.483 25.7705 180.424 25.4399 180.424ZM30.7155 178.584L33.1475 179.416V185.016H34.6035L35.7075 183.128H34.8755V182.136H38.2355V183.128H36.8915L35.5635 185.416L37.1155 188.008H38.4915V189H36.3635L34.5555 186.008H33.1475V188.008H33.8675V189H30.5555V188.008H31.8995V180.104L30.3795 179.576L30.7155 178.584ZM25.4239 219.336C25.9892 219.336 26.5012 219.421 26.9599 219.592C27.4185 219.763 27.8132 220.04 28.1439 220.424C28.4852 220.808 28.7465 221.32 28.9279 221.96C29.1092 222.589 29.1999 223.368 29.1999 224.296C29.1999 225.213 29.1092 225.992 28.9279 226.632C28.7465 227.261 28.4852 227.768 28.1439 228.152C27.8132 228.536 27.4185 228.813 26.9599 228.984C26.5012 229.155 25.9892 229.24 25.4239 229.24C24.8692 229.24 24.3625 229.155 23.9039 228.984C23.4452 228.813 23.0452 228.536 22.7039 228.152C22.3732 227.768 22.1172 227.261 21.9359 226.632C21.7545 225.992 21.6639 225.213 21.6639 224.296C21.6639 223.368 21.7545 222.589 21.9359 221.96C22.1172 221.32 22.3732 220.808 22.7039 220.424C23.0452 220.04 23.4452 219.763 23.9039 219.592C24.3625 219.421 24.8692 219.336 25.4239 219.336ZM25.4399 220.424C25.1092 220.424 24.7945 220.483 24.4959 220.6C24.2079 220.707 23.9572 220.899 23.7439 221.176C23.5305 221.453 23.3599 221.848 23.2319 222.36C23.1145 222.861 23.0559 223.507 23.0559 224.296C23.0559 225.075 23.1145 225.72 23.2319 226.232C23.3599 226.733 23.5305 227.123 23.7439 227.4C23.9572 227.677 24.2079 227.875 24.4959 227.992C24.7945 228.099 25.1092 228.152 25.4399 228.152C25.7705 228.152 26.0799 228.099 26.3679 227.992C26.6559 227.875 26.9065 227.677 27.1199 227.4C27.3439 227.123 27.5145 226.733 27.6319 226.232C27.7599 225.72 27.8239 225.075 27.8239 224.296C27.8239 223.507 27.7599 222.861 27.6319 222.36C27.5145 221.848 27.3439 221.453 27.1199 221.176C26.9065 220.899 26.6559 220.707 26.3679 220.6C26.0799 220.483 25.7705 220.424 25.4399 220.424ZM30.7155 218.584L33.1475 219.416V225.016H34.6035L35.7075 223.128H34.8755V222.136H38.2355V223.128H36.8915L35.5635 225.416L37.1155 228.008H38.4915V229H36.3635L34.5555 226.008H33.1475V228.008H33.8675V229H30.5555V228.008H31.8995V220.104L30.3795 219.576L30.7155 218.584Z" fill="black"/>
<path d="M50.2833 255.336C50.8486 255.336 51.3606 255.421 51.8193 255.592C52.2779 255.763 52.6726 256.04 53.0033 256.424C53.3446 256.808 53.6059 257.32 53.7873 257.96C53.9686 258.589 54.0593 259.368 54.0593 260.296C54.0593 261.213 53.9686 261.992 53.7873 262.632C53.6059 263.261 53.3446 263.768 53.0033 264.152C52.6726 264.536 52.2779 264.813 51.8193 264.984C51.3606 265.155 50.8486 265.24 50.2833 265.24C49.7286 265.24 49.2219 265.155 48.7633 264.984C48.3046 264.813 47.9046 264.536 47.5633 264.152C47.2326 263.768 46.9766 263.261 46.7953 262.632C46.6139 261.992 46.5233 261.213 46.5233 260.296C46.5233 259.368 46.6139 258.589 46.7953 257.96C46.9766 257.32 47.2326 256.808 47.5633 256.424C47.9046 256.04 48.3046 255.763 48.7633 255.592C49.2219 255.421 49.7286 255.336 50.2833 255.336ZM50.2993 256.424C49.9686 256.424 49.6539 256.483 49.3553 256.6C49.0673 256.707 48.8166 256.899 48.6033 257.176C48.3899 257.453 48.2193 257.848 48.0913 258.36C47.9739 258.861 47.9153 259.507 47.9153 260.296C47.9153 261.075 47.9739 261.72 48.0913 262.232C48.2193 262.733 48.3899 263.123 48.6033 263.4C48.8166 263.677 49.0673 263.875 49.3553 263.992C49.6539 264.099 49.9686 264.152 50.2993 264.152C50.6299 264.152 50.9393 264.099 51.2273 263.992C51.5153 263.875 51.7659 263.677 51.9793 263.4C52.2033 263.123 52.3739 262.733 52.4913 262.232C52.6193 261.72 52.6833 261.075 52.6833 260.296C52.6833 259.507 52.6193 258.861 52.4913 258.36C52.3739 257.848 52.2033 257.453 51.9793 257.176C51.7659 256.899 51.5153 256.707 51.2273 256.6C50.9393 256.483 50.6299 256.424 50.2993 256.424ZM58.7225 255.576H59.5225L59.4905 263.896H61.9865V265H55.5865V263.896H58.2425L58.2585 257.448L55.9705 259.336L55.2665 258.472L58.7225 255.576Z" fill="black"/>
<path d="M80.7989 255.336C81.3642 255.336 81.8762 255.421 82.3349 255.592C82.7935 255.763 83.1882 256.04 83.5189 256.424C83.8602 256.808 84.1215 257.32 84.3029 257.96C84.4842 258.589 84.5749 259.368 84.5749 260.296C84.5749 261.213 84.4842 261.992 84.3029 262.632C84.1215 263.261 83.8602 263.768 83.5189 264.152C83.1882 264.536 82.7935 264.813 82.3349 264.984C81.8762 265.155 81.3642 265.24 80.7989 265.24C80.2442 265.24 79.7375 265.155 79.2789 264.984C78.8202 264.813 78.4202 264.536 78.0789 264.152C77.7482 263.768 77.4922 263.261 77.3109 262.632C77.1295 261.992 77.0389 261.213 77.0389 260.296C77.0389 259.368 77.1295 258.589 77.3109 257.96C77.4922 257.32 77.7482 256.808 78.0789 256.424C78.4202 256.04 78.8202 255.763 79.2789 255.592C79.7375 255.421 80.2442 255.336 80.7989 255.336ZM80.8149 256.424C80.4842 256.424 80.1695 256.483 79.8709 256.6C79.5829 256.707 79.3322 256.899 79.1189 257.176C78.9055 257.453 78.7349 257.848 78.6069 258.36C78.4895 258.861 78.4309 259.507 78.4309 260.296C78.4309 261.075 78.4895 261.72 78.6069 262.232C78.7349 262.733 78.9055 263.123 79.1189 263.4C79.3322 263.677 79.5829 263.875 79.8709 263.992C80.1695 264.099 80.4842 264.152 80.8149 264.152C81.1455 264.152 81.4549 264.099 81.7429 263.992C82.0309 263.875 82.2815 263.677 82.4949 263.4C82.7189 263.123 82.8895 262.733 83.0069 262.232C83.1349 261.72 83.1989 261.075 83.1989 260.296C83.1989 259.507 83.1349 258.861 83.0069 258.36C82.8895 257.848 82.7189 257.453 82.4949 257.176C82.2815 256.899 82.0309 256.707 81.7429 256.6C81.4549 256.483 81.1455 256.424 80.8149 256.424ZM86.226 265L85.794 263.72C86.6153 262.973 87.3833 262.323 88.098 261.768C88.8127 261.213 89.4153 260.696 89.906 260.216C90.2793 259.864 90.5673 259.523 90.77 259.192C90.9833 258.851 91.0953 258.499 91.106 258.136C91.1167 257.571 90.9353 257.149 90.562 256.872C90.1887 256.584 89.7407 256.44 89.218 256.44C88.8447 256.44 88.4553 256.515 88.05 256.664C87.6553 256.813 87.298 257.043 86.978 257.352L86.178 256.6C86.6153 256.131 87.1113 255.789 87.666 255.576C88.2207 255.363 88.77 255.256 89.314 255.256C89.8687 255.256 90.386 255.363 90.866 255.576C91.346 255.789 91.73 256.099 92.018 256.504C92.3167 256.899 92.466 257.389 92.466 257.976C92.466 258.477 92.306 258.968 91.986 259.448C91.666 259.928 91.2553 260.408 90.754 260.888C90.242 261.379 89.6713 261.875 89.042 262.376C88.4127 262.867 87.7993 263.373 87.202 263.896H91.586L92.418 262.568L93.33 263.048L92.194 265H86.226Z" fill="black"/>
<path d="M112.072 255.336C112.638 255.336 113.15 255.421 113.608 255.592C114.067 255.763 114.462 256.04 114.792 256.424C115.134 256.808 115.395 257.32 115.576 257.96C115.758 258.589 115.848 259.368 115.848 260.296C115.848 261.213 115.758 261.992 115.576 262.632C115.395 263.261 115.134 263.768 114.792 264.152C114.462 264.536 114.067 264.813 113.608 264.984C113.15 265.155 112.638 265.24 112.072 265.24C111.518 265.24 111.011 265.155 110.552 264.984C110.094 264.813 109.694 264.536 109.352 264.152C109.022 263.768 108.766 263.261 108.584 262.632C108.403 261.992 108.312 261.213 108.312 260.296C108.312 259.368 108.403 258.589 108.584 257.96C108.766 257.32 109.022 256.808 109.352 256.424C109.694 256.04 110.094 255.763 110.552 255.592C111.011 255.421 111.518 255.336 112.072 255.336ZM112.088 256.424C111.758 256.424 111.443 256.483 111.144 256.6C110.856 256.707 110.606 256.899 110.392 257.176C110.179 257.453 110.008 257.848 109.88 258.36C109.763 258.861 109.704 259.507 109.704 260.296C109.704 261.075 109.763 261.72 109.88 262.232C110.008 262.733 110.179 263.123 110.392 263.4C110.606 263.677 110.856 263.875 111.144 263.992C111.443 264.099 111.758 264.152 112.088 264.152C112.419 264.152 112.728 264.099 113.016 263.992C113.304 263.875 113.555 263.677 113.768 263.4C113.992 263.123 114.163 262.733 114.28 262.232C114.408 261.72 114.472 261.075 114.472 260.296C114.472 259.507 114.408 258.861 114.28 258.36C114.163 257.848 113.992 257.453 113.768 257.176C113.555 256.899 113.304 256.707 113.016 256.6C112.728 256.483 112.419 256.424 112.088 256.424ZM120.507 259.592C121.019 259.592 121.425 259.437 121.723 259.128C122.022 258.808 122.171 258.392 122.171 257.88C122.171 257.453 122.017 257.112 121.707 256.856C121.398 256.589 120.987 256.451 120.475 256.44C120.049 256.429 119.627 256.504 119.211 256.664C118.806 256.824 118.47 257.037 118.203 257.304L117.339 256.472C117.691 256.099 118.145 255.816 118.699 255.624C119.254 255.432 119.857 255.336 120.507 255.336C121.425 255.336 122.155 255.571 122.699 256.04C123.254 256.509 123.531 257.123 123.531 257.88C123.531 258.232 123.467 258.563 123.339 258.872C123.211 259.171 123.03 259.432 122.795 259.656C122.561 259.88 122.289 260.056 121.979 260.184C122.566 260.28 123.041 260.536 123.403 260.952C123.777 261.357 123.963 261.843 123.963 262.408C123.963 262.973 123.819 263.469 123.531 263.896C123.243 264.323 122.838 264.653 122.315 264.888C121.793 265.123 121.179 265.24 120.475 265.24C119.985 265.24 119.537 265.197 119.131 265.112C118.726 265.037 118.358 264.92 118.027 264.76C117.697 264.589 117.403 264.381 117.147 264.136L117.963 263.224C118.401 263.544 118.806 263.779 119.179 263.928C119.553 264.067 120.001 264.136 120.523 264.136C121.153 264.136 121.654 263.981 122.027 263.672C122.411 263.352 122.603 262.936 122.603 262.424C122.603 261.901 122.379 261.485 121.931 261.176C121.483 260.856 120.891 260.696 120.155 260.696H119.419V259.592H120.507Z" fill="black"/>
<path d="M142.58 255.336C143.145 255.336 143.657 255.421 144.116 255.592C144.575 255.763 144.969 256.04 145.3 256.424C145.641 256.808 145.903 257.32 146.084 257.96C146.265 258.589 146.356 259.368 146.356 260.296C146.356 261.213 146.265 261.992 146.084 262.632C145.903 263.261 145.641 263.768 145.3 264.152C144.969 264.536 144.575 264.813 144.116 264.984C143.657 265.155 143.145 265.24 142.58 265.24C142.025 265.24 141.519 265.155 141.06 264.984C140.601 264.813 140.201 264.536 139.86 264.152C139.529 263.768 139.273 263.261 139.092 262.632C138.911 261.992 138.82 261.213 138.82 260.296C138.82 259.368 138.911 258.589 139.092 257.96C139.273 257.32 139.529 256.808 139.86 256.424C140.201 256.04 140.601 255.763 141.06 255.592C141.519 255.421 142.025 255.336 142.58 255.336ZM142.596 256.424C142.265 256.424 141.951 256.483 141.652 256.6C141.364 256.707 141.113 256.899 140.9 257.176C140.687 257.453 140.516 257.848 140.388 258.36C140.271 258.861 140.212 259.507 140.212 260.296C140.212 261.075 140.271 261.72 140.388 262.232C140.516 262.733 140.687 263.123 140.9 263.4C141.113 263.677 141.364 263.875 141.652 263.992C141.951 264.099 142.265 264.152 142.596 264.152C142.927 264.152 143.236 264.099 143.524 263.992C143.812 263.875 144.063 263.677 144.276 263.4C144.5 263.123 144.671 262.733 144.788 262.232C144.916 261.72 144.98 261.075 144.98 260.296C144.98 259.507 144.916 258.861 144.788 258.36C144.671 257.848 144.5 257.453 144.276 257.176C144.063 256.899 143.812 256.707 143.524 256.6C143.236 256.483 142.927 256.424 142.596 256.424ZM150.896 265V263.896H152.576V262.36H147.76L147.744 261.768L150.976 255.048L152.032 255.64L149.328 261.272H152.576V256.968H153.872L153.856 261.272L155.36 261.256V262.36H153.856V263.896H155.296V265H150.896Z" fill="black"/>
<path d="M174.119 255.336C174.685 255.336 175.197 255.421 175.655 255.592C176.114 255.763 176.509 256.04 176.839 256.424C177.181 256.808 177.442 257.32 177.623 257.96C177.805 258.589 177.895 259.368 177.895 260.296C177.895 261.213 177.805 261.992 177.623 262.632C177.442 263.261 177.181 263.768 176.839 264.152C176.509 264.536 176.114 264.813 175.655 264.984C175.197 265.155 174.685 265.24 174.119 265.24C173.565 265.24 173.058 265.155 172.599 264.984C172.141 264.813 171.741 264.536 171.399 264.152C171.069 263.768 170.813 263.261 170.631 262.632C170.45 261.992 170.359 261.213 170.359 260.296C170.359 259.368 170.45 258.589 170.631 257.96C170.813 257.32 171.069 256.808 171.399 256.424C171.741 256.04 172.141 255.763 172.599 255.592C173.058 255.421 173.565 255.336 174.119 255.336ZM174.135 256.424C173.805 256.424 173.49 256.483 173.191 256.6C172.903 256.707 172.653 256.899 172.439 257.176C172.226 257.453 172.055 257.848 171.927 258.36C171.81 258.861 171.751 259.507 171.751 260.296C171.751 261.075 171.81 261.72 171.927 262.232C172.055 262.733 172.226 263.123 172.439 263.4C172.653 263.677 172.903 263.875 173.191 263.992C173.49 264.099 173.805 264.152 174.135 264.152C174.466 264.152 174.775 264.099 175.063 263.992C175.351 263.875 175.602 263.677 175.815 263.4C176.039 263.123 176.21 262.733 176.327 262.232C176.455 261.72 176.519 261.075 176.519 260.296C176.519 259.507 176.455 258.861 176.327 258.36C176.21 257.848 176.039 257.453 175.815 257.176C175.602 256.899 175.351 256.707 175.063 256.6C174.775 256.483 174.466 256.424 174.135 256.424ZM181.006 259.24C181.294 259.048 181.593 258.909 181.902 258.824C182.212 258.728 182.521 258.68 182.83 258.68C183.417 258.68 183.94 258.797 184.398 259.032C184.868 259.256 185.236 259.597 185.502 260.056C185.78 260.515 185.918 261.08 185.918 261.752C185.918 262.883 185.614 263.747 185.006 264.344C184.398 264.941 183.524 265.24 182.382 265.24C181.764 265.24 181.166 265.123 180.59 264.888C180.014 264.653 179.545 264.307 179.182 263.848L180.158 263.192C180.414 263.501 180.734 263.741 181.118 263.912C181.513 264.072 181.95 264.152 182.43 264.152C183.124 264.152 183.652 263.955 184.014 263.56C184.377 263.165 184.558 262.621 184.558 261.928C184.558 261.459 184.457 261.064 184.254 260.744C184.062 260.424 183.801 260.184 183.47 260.024C183.15 259.864 182.804 259.784 182.43 259.784C182.089 259.784 181.742 259.859 181.39 260.008C181.038 260.147 180.724 260.355 180.446 260.632L179.71 260.296V255.576H185.246V256.696H181.006V259.24Z" fill="black"/>
<path d="M204.83 255.336C205.395 255.336 205.907 255.421 206.366 255.592C206.825 255.763 207.219 256.04 207.55 256.424C207.891 256.808 208.153 257.32 208.334 257.96C208.515 258.589 208.606 259.368 208.606 260.296C208.606 261.213 208.515 261.992 208.334 262.632C208.153 263.261 207.891 263.768 207.55 264.152C207.219 264.536 206.825 264.813 206.366 264.984C205.907 265.155 205.395 265.24 204.83 265.24C204.275 265.24 203.769 265.155 203.31 264.984C202.851 264.813 202.451 264.536 202.11 264.152C201.779 263.768 201.523 263.261 201.342 262.632C201.161 261.992 201.07 261.213 201.07 260.296C201.07 259.368 201.161 258.589 201.342 257.96C201.523 257.32 201.779 256.808 202.11 256.424C202.451 256.04 202.851 255.763 203.31 255.592C203.769 255.421 204.275 255.336 204.83 255.336ZM204.846 256.424C204.515 256.424 204.201 256.483 203.902 256.6C203.614 256.707 203.363 256.899 203.15 257.176C202.937 257.453 202.766 257.848 202.638 258.36C202.521 258.861 202.462 259.507 202.462 260.296C202.462 261.075 202.521 261.72 202.638 262.232C202.766 262.733 202.937 263.123 203.15 263.4C203.363 263.677 203.614 263.875 203.902 263.992C204.201 264.099 204.515 264.152 204.846 264.152C205.177 264.152 205.486 264.099 205.774 263.992C206.062 263.875 206.313 263.677 206.526 263.4C206.75 263.123 206.921 262.733 207.038 262.232C207.166 261.72 207.23 261.075 207.23 260.296C207.23 259.507 207.166 258.861 207.038 258.36C206.921 257.848 206.75 257.453 206.526 257.176C206.313 256.899 206.062 256.707 205.774 256.6C205.486 256.483 205.177 256.424 204.846 256.424ZM216.181 257C216.181 257 216.08 256.952 215.877 256.856C215.685 256.76 215.445 256.664 215.157 256.568C214.88 256.472 214.603 256.424 214.325 256.424C213.771 256.424 213.312 256.541 212.949 256.776C212.587 257.011 212.299 257.32 212.085 257.704C211.872 258.077 211.717 258.488 211.621 258.936C211.525 259.384 211.472 259.821 211.461 260.248C211.664 259.971 211.989 259.709 212.437 259.464C212.896 259.219 213.419 259.096 214.005 259.096C214.549 259.096 215.061 259.187 215.541 259.368C216.032 259.539 216.432 259.848 216.741 260.296C217.051 260.733 217.205 261.357 217.205 262.168C217.205 262.445 217.152 262.76 217.045 263.112C216.949 263.464 216.773 263.805 216.517 264.136C216.272 264.456 215.92 264.723 215.461 264.936C215.013 265.139 214.437 265.24 213.733 265.24C212.496 265.24 211.584 264.824 210.997 263.992C210.421 263.149 210.133 261.944 210.133 260.376C210.133 259.459 210.299 258.621 210.629 257.864C210.971 257.096 211.451 256.483 212.069 256.024C212.688 255.565 213.429 255.336 214.293 255.336C214.773 255.336 215.195 255.4 215.557 255.528C215.931 255.645 216.224 255.768 216.437 255.896C216.651 256.013 216.757 256.072 216.757 256.072L216.181 257ZM214.005 260.184C213.419 260.184 212.896 260.285 212.437 260.488C211.989 260.68 211.675 260.957 211.493 261.32C211.557 262.141 211.707 262.755 211.941 263.16C212.187 263.565 212.475 263.832 212.805 263.96C213.147 264.088 213.493 264.152 213.845 264.152C214.315 264.152 214.699 264.051 214.997 263.848C215.296 263.645 215.52 263.395 215.669 263.096C215.819 262.787 215.893 262.477 215.893 262.168C215.893 261.539 215.739 261.053 215.429 260.712C215.12 260.36 214.645 260.184 214.005 260.184Z" fill="black"/>
<path d="M236.236 255.336C236.802 255.336 237.314 255.421 237.772 255.592C238.231 255.763 238.626 256.04 238.956 256.424C239.298 256.808 239.559 257.32 239.74 257.96C239.922 258.589 240.012 259.368 240.012 260.296C240.012 261.213 239.922 261.992 239.74 262.632C239.559 263.261 239.298 263.768 238.956 264.152C238.626 264.536 238.231 264.813 237.772 264.984C237.314 265.155 236.802 265.24 236.236 265.24C235.682 265.24 235.175 265.155 234.716 264.984C234.258 264.813 233.858 264.536 233.516 264.152C233.186 263.768 232.93 263.261 232.748 262.632C232.567 261.992 232.476 261.213 232.476 260.296C232.476 259.368 232.567 258.589 232.748 257.96C232.93 257.32 233.186 256.808 233.516 256.424C233.858 256.04 234.258 255.763 234.716 255.592C235.175 255.421 235.682 255.336 236.236 255.336ZM236.252 256.424C235.922 256.424 235.607 256.483 235.308 256.6C235.02 256.707 234.77 256.899 234.556 257.176C234.343 257.453 234.172 257.848 234.044 258.36C233.927 258.861 233.868 259.507 233.868 260.296C233.868 261.075 233.927 261.72 234.044 262.232C234.172 262.733 234.343 263.123 234.556 263.4C234.77 263.677 235.02 263.875 235.308 263.992C235.607 264.099 235.922 264.152 236.252 264.152C236.583 264.152 236.892 264.099 237.18 263.992C237.468 263.875 237.719 263.677 237.932 263.4C238.156 263.123 238.327 262.733 238.444 262.232C238.572 261.72 238.636 261.075 238.636 260.296C238.636 259.507 238.572 258.861 238.444 258.36C238.327 257.848 238.156 257.453 237.932 257.176C237.719 256.899 237.468 256.707 237.18 256.6C236.892 256.483 236.583 256.424 236.252 256.424ZM248.2 256.264C247.379 257.267 246.728 258.301 246.248 259.368C245.768 260.424 245.416 261.437 245.192 262.408C244.968 263.379 244.829 264.243 244.776 265H243.464C243.56 264.2 243.72 263.352 243.944 262.456C244.179 261.549 244.504 260.611 244.92 259.64C245.336 258.669 245.853 257.683 246.472 256.68H242.184L241.96 257.672L240.856 257.432L241.208 255.576H248.2V256.264Z" fill="black"/>
<path d="M266.893 255.336C267.458 255.336 267.97 255.421 268.429 255.592C268.887 255.763 269.282 256.04 269.613 256.424C269.954 256.808 270.215 257.32 270.397 257.96C270.578 258.589 270.669 259.368 270.669 260.296C270.669 261.213 270.578 261.992 270.397 262.632C270.215 263.261 269.954 263.768 269.613 264.152C269.282 264.536 268.887 264.813 268.429 264.984C267.97 265.155 267.458 265.24 266.893 265.24C266.338 265.24 265.831 265.155 265.373 264.984C264.914 264.813 264.514 264.536 264.173 264.152C263.842 263.768 263.586 263.261 263.405 262.632C263.223 261.992 263.133 261.213 263.133 260.296C263.133 259.368 263.223 258.589 263.405 257.96C263.586 257.32 263.842 256.808 264.173 256.424C264.514 256.04 264.914 255.763 265.373 255.592C265.831 255.421 266.338 255.336 266.893 255.336ZM266.909 256.424C266.578 256.424 266.263 256.483 265.965 256.6C265.677 256.707 265.426 256.899 265.213 257.176C264.999 257.453 264.829 257.848 264.701 258.36C264.583 258.861 264.525 259.507 264.525 260.296C264.525 261.075 264.583 261.72 264.701 262.232C264.829 262.733 264.999 263.123 265.213 263.4C265.426 263.677 265.677 263.875 265.965 263.992C266.263 264.099 266.578 264.152 266.909 264.152C267.239 264.152 267.549 264.099 267.837 263.992C268.125 263.875 268.375 263.677 268.589 263.4C268.813 263.123 268.983 262.733 269.101 262.232C269.229 261.72 269.293 261.075 269.293 260.296C269.293 259.507 269.229 258.861 269.101 258.36C268.983 257.848 268.813 257.453 268.589 257.176C268.375 256.899 268.125 256.707 267.837 256.6C267.549 256.483 267.239 256.424 266.909 256.424ZM275.584 255.336C276.17 255.336 276.698 255.443 277.168 255.656C277.648 255.859 278.032 256.163 278.32 256.568C278.608 256.963 278.752 257.453 278.752 258.04C278.752 258.339 278.688 258.632 278.56 258.92C278.442 259.208 278.261 259.459 278.016 259.672C277.781 259.885 277.493 260.04 277.152 260.136C277.493 260.189 277.797 260.323 278.064 260.536C278.33 260.749 278.538 261.021 278.688 261.352C278.848 261.672 278.928 262.019 278.928 262.392C278.928 263.021 278.768 263.549 278.448 263.976C278.138 264.403 277.733 264.723 277.232 264.936C276.73 265.139 276.186 265.24 275.6 265.24C275.024 265.24 274.48 265.139 273.968 264.936C273.466 264.723 273.056 264.403 272.736 263.976C272.426 263.549 272.272 263.021 272.272 262.392C272.272 262.019 272.346 261.672 272.496 261.352C272.656 261.021 272.869 260.749 273.136 260.536C273.402 260.323 273.706 260.189 274.048 260.136C273.706 260.04 273.413 259.885 273.168 259.672C272.933 259.459 272.752 259.208 272.624 258.92C272.506 258.632 272.448 258.339 272.448 258.04C272.448 257.453 272.586 256.963 272.864 256.568C273.152 256.163 273.536 255.859 274.016 255.656C274.496 255.443 275.018 255.336 275.584 255.336ZM275.6 260.68C274.949 260.68 274.458 260.845 274.128 261.176C273.808 261.507 273.648 261.912 273.648 262.392C273.648 262.904 273.829 263.325 274.192 263.656C274.554 263.987 275.024 264.152 275.6 264.152C276.176 264.152 276.645 263.987 277.008 263.656C277.37 263.325 277.552 262.904 277.552 262.392C277.552 261.912 277.392 261.507 277.072 261.176C276.752 260.845 276.261 260.68 275.6 260.68ZM275.6 256.424C275.034 256.424 274.592 256.579 274.272 256.888C273.962 257.197 273.808 257.581 273.808 258.04C273.808 258.499 273.962 258.883 274.272 259.192C274.592 259.501 275.034 259.656 275.6 259.656C276.165 259.656 276.602 259.501 276.912 259.192C277.232 258.883 277.392 258.499 277.392 258.04C277.392 257.581 277.232 257.197 276.912 256.888C276.602 256.579 276.165 256.424 275.6 256.424Z" fill="black"/>
<path d="M297.729 255.336C298.294 255.336 298.806 255.421 299.265 255.592C299.723 255.763 300.118 256.04 300.449 256.424C300.79 256.808 301.051 257.32 301.233 257.96C301.414 258.589 301.505 259.368 301.505 260.296C301.505 261.213 301.414 261.992 301.233 262.632C301.051 263.261 300.79 263.768 300.449 264.152C300.118 264.536 299.723 264.813 299.265 264.984C298.806 265.155 298.294 265.24 297.729 265.24C297.174 265.24 296.667 265.155 296.209 264.984C295.75 264.813 295.35 264.536 295.009 264.152C294.678 263.768 294.422 263.261 294.241 262.632C294.059 261.992 293.969 261.213 293.969 260.296C293.969 259.368 294.059 258.589 294.241 257.96C294.422 257.32 294.678 256.808 295.009 256.424C295.35 256.04 295.75 255.763 296.209 255.592C296.667 255.421 297.174 255.336 297.729 255.336ZM297.745 256.424C297.414 256.424 297.099 256.483 296.801 256.6C296.513 256.707 296.262 256.899 296.049 257.176C295.835 257.453 295.665 257.848 295.537 258.36C295.419 258.861 295.361 259.507 295.361 260.296C295.361 261.075 295.419 261.72 295.537 262.232C295.665 262.733 295.835 263.123 296.049 263.4C296.262 263.677 296.513 263.875 296.801 263.992C297.099 264.099 297.414 264.152 297.745 264.152C298.075 264.152 298.385 264.099 298.673 263.992C298.961 263.875 299.211 263.677 299.425 263.4C299.649 263.123 299.819 262.733 299.937 262.232C300.065 261.72 300.129 261.075 300.129 260.296C300.129 259.507 300.065 258.861 299.937 258.36C299.819 257.848 299.649 257.453 299.425 257.176C299.211 256.899 298.961 256.707 298.673 256.6C298.385 256.483 298.075 256.424 297.745 256.424ZM304.068 263.576C304.078 263.565 304.185 263.613 304.388 263.72C304.59 263.816 304.852 263.912 305.172 264.008C305.492 264.104 305.828 264.152 306.18 264.152C306.702 264.152 307.129 264.051 307.46 263.848C307.79 263.645 308.046 263.373 308.228 263.032C308.409 262.691 308.537 262.317 308.612 261.912C308.697 261.507 308.75 261.107 308.772 260.712C308.558 261 308.228 261.277 307.78 261.544C307.342 261.8 306.825 261.928 306.228 261.928C305.694 261.928 305.182 261.832 304.692 261.64C304.201 261.437 303.801 261.091 303.492 260.6C303.182 260.099 303.028 259.405 303.028 258.52C303.028 258.221 303.076 257.891 303.172 257.528C303.278 257.165 303.454 256.819 303.7 256.488C303.956 256.147 304.308 255.869 304.756 255.656C305.214 255.443 305.796 255.336 306.5 255.336C307.737 255.336 308.66 255.763 309.268 256.616C309.876 257.459 310.18 258.664 310.18 260.232C310.18 261.256 310.046 262.099 309.78 262.76C309.524 263.411 309.182 263.917 308.756 264.28C308.34 264.643 307.892 264.893 307.412 265.032C306.942 265.171 306.494 265.24 306.068 265.24C305.556 265.24 305.102 265.176 304.708 265.048C304.324 264.931 304.02 264.813 303.796 264.696C303.582 264.568 303.476 264.504 303.476 264.504L304.068 263.576ZM306.388 256.424C305.929 256.424 305.545 256.531 305.236 256.744C304.937 256.947 304.713 257.224 304.564 257.576C304.414 257.917 304.34 258.296 304.34 258.712C304.34 259.288 304.494 259.789 304.804 260.216C305.113 260.632 305.588 260.84 306.228 260.84C306.9 260.84 307.449 260.717 307.876 260.472C308.302 260.216 308.601 259.891 308.772 259.496C308.74 258.824 308.649 258.285 308.5 257.88C308.35 257.475 308.164 257.165 307.94 256.952C307.716 256.739 307.47 256.6 307.204 256.536C306.937 256.461 306.665 256.424 306.388 256.424Z" fill="black"/>
<path d="M328.769 255.576H329.569L329.537 263.896H332.033V265H325.633V263.896H328.289L328.305 257.448L326.017 259.336L325.313 258.472L328.769 255.576ZM336.627 255.336C337.192 255.336 337.704 255.421 338.163 255.592C338.622 255.763 339.016 256.04 339.347 256.424C339.688 256.808 339.95 257.32 340.131 257.96C340.312 258.589 340.403 259.368 340.403 260.296C340.403 261.213 340.312 261.992 340.131 262.632C339.95 263.261 339.688 263.768 339.347 264.152C339.016 264.536 338.622 264.813 338.163 264.984C337.704 265.155 337.192 265.24 336.627 265.24C336.072 265.24 335.566 265.155 335.107 264.984C334.648 264.813 334.248 264.536 333.907 264.152C333.576 263.768 333.32 263.261 333.139 262.632C332.958 261.992 332.867 261.213 332.867 260.296C332.867 259.368 332.958 258.589 333.139 257.96C333.32 257.32 333.576 256.808 333.907 256.424C334.248 256.04 334.648 255.763 335.107 255.592C335.566 255.421 336.072 255.336 336.627 255.336ZM336.643 256.424C336.312 256.424 335.998 256.483 335.699 256.6C335.411 256.707 335.16 256.899 334.947 257.176C334.734 257.453 334.563 257.848 334.435 258.36C334.318 258.861 334.259 259.507 334.259 260.296C334.259 261.075 334.318 261.72 334.435 262.232C334.563 262.733 334.734 263.123 334.947 263.4C335.16 263.677 335.411 263.875 335.699 263.992C335.998 264.099 336.312 264.152 336.643 264.152C336.974 264.152 337.283 264.099 337.571 263.992C337.859 263.875 338.11 263.677 338.323 263.4C338.547 263.123 338.718 262.733 338.835 262.232C338.963 261.72 339.027 261.075 339.027 260.296C339.027 259.507 338.963 258.861 338.835 258.36C338.718 257.848 338.547 257.453 338.323 257.176C338.11 256.899 337.859 256.707 337.571 256.6C337.283 256.483 336.974 256.424 336.643 256.424Z" fill="black"/>
<path d="M360.254 255.576H361.054L361.022 263.896H363.518V265H357.118V263.896H359.774L359.79 257.448L357.502 259.336L356.798 258.472L360.254 255.576ZM368.16 255.576H368.96L368.928 263.896H371.424V265H365.024V263.896H367.68L367.696 257.448L365.408 259.336L364.704 258.472L368.16 255.576Z" fill="black"/>
<path d="M390.855 255.576H391.655L391.623 263.896H394.119V265H387.719V263.896H390.375L390.391 257.448L388.103 259.336L387.399 258.472L390.855 255.576ZM395.578 265L395.146 263.72C395.967 262.973 396.735 262.323 397.45 261.768C398.164 261.213 398.767 260.696 399.258 260.216C399.631 259.864 399.919 259.523 400.122 259.192C400.335 258.851 400.447 258.499 400.458 258.136C400.468 257.571 400.287 257.149 399.914 256.872C399.54 256.584 399.092 256.44 398.57 256.44C398.196 256.44 397.807 256.515 397.402 256.664C397.007 256.813 396.65 257.043 396.33 257.352L395.53 256.6C395.967 256.131 396.463 255.789 397.018 255.576C397.572 255.363 398.122 255.256 398.666 255.256C399.22 255.256 399.738 255.363 400.218 255.576C400.698 255.789 401.082 256.099 401.37 256.504C401.668 256.899 401.818 257.389 401.818 257.976C401.818 258.477 401.658 258.968 401.338 259.448C401.018 259.928 400.607 260.408 400.106 260.888C399.594 261.379 399.023 261.875 398.394 262.376C397.764 262.867 397.151 263.373 396.554 263.896H400.938L401.77 262.568L402.682 263.048L401.546 265H395.578Z" fill="black"/>
<rect x="48" y="8" width="356" height="240" rx="10" fill="#E4E0E9"/>
<line x1="55" y1="8" x2="55" y2="248" stroke="#FFFDFB" stroke-width="2"/>
<line x1="85" y1="8" x2="85" y2="248" stroke="#FFFDFB" stroke-width="2"/>
<line x1="116" y1="8" x2="116" y2="248" stroke="#FFFDFB" stroke-width="2"/>
<line x1="147" y1="8" x2="147" y2="248" stroke="#FFFDFB" stroke-width="2"/>
<line x1="178" y1="8" x2="178" y2="248" stroke="#FFFDFB" stroke-width="2"/>
<line x1="209" y1="8" x2="209" y2="248" stroke="#FFFDFB" stroke-width="2"/>
<line x1="240" y1="8" x2="240" y2="248" stroke="#FFFDFB" stroke-width="2"/>
<line x1="271" y1="8" x2="271" y2="248" stroke="#FFFDFB" stroke-width="2"/>
<line x1="302" y1="8" x2="302" y2="248" stroke="#FFFDFB" stroke-width="2"/>
<line x1="333" y1="8" x2="333" y2="248" stroke="#FFFDFB" stroke-width="2"/>
<line x1="364" y1="8" x2="364" y2="248" stroke="#FFFDFB" stroke-width="2"/>
<line x1="395" y1="8" x2="395" y2="248" stroke="#FFFDFB" stroke-width="2"/>
<circle cx="4" cy="4" r="4" transform="matrix(1 0 0 -1 51 129)" fill="#4B3D5A"/>
<circle cx="4" cy="4" r="4" transform="matrix(1 0 0 -1 81 99)" fill="#4B3D5A"/>
<circle cx="4" cy="4" r="4" transform="matrix(1 0 0 -1 112 107)" fill="#4B3D5A"/>
<circle cx="4" cy="4" r="4" transform="matrix(1 0 0 -1 143 83)" fill="#4B3D5A"/>
<circle cx="4" cy="4" r="4" transform="matrix(1 0 0 -1 174 35)" fill="#4B3D5A"/>
<circle cx="4" cy="4" r="4" transform="matrix(1 0 0 -1 205 44)" fill="#4B3D5A"/>
<circle cx="4" cy="4" r="4" transform="matrix(1 0 0 -1 236 67)" fill="#4B3D5A"/>
<circle cx="4" cy="4" r="4" transform="matrix(1 0 0 -1 267 75)" fill="#4B3D5A"/>
<circle cx="4" cy="4" r="4" transform="matrix(1 0 0 -1 298 92)" fill="#4B3D5A"/>
<path d="M55 125C55 125 72.5303 97.3652 85 95C97.4697 92.6349 103.476 105.057 116 103C128.524 100.943 133.86 92.3861 147 79C160.14 65.614 158.026 29.8101 178 31C197.974 32.1899 197.704 36.2208 209 40C220.296 43.7791 228.165 61.6527 240 63C251.835 64.3474 259.912 64.9198 271 71C282.088 77.0802 302 88 302 88" stroke="#4B3D5A" stroke-width="4"/>
</svg>
