<svg width="29" height="29" viewBox="0 0 29 29" fill="none" xmlns="http://www.w3.org/2000/svg">
<path opacity="0.987" fill-rule="evenodd" clip-rule="evenodd" d="M13.0663 1.92304C14.3804 1.77622 15.158 1.77622 16.5699 1.92304C19.0692 2.29296 21.3861 3.44823 23.1855 5.22179C21.9695 6.37116 20.7696 7.53731 19.5859 8.71991C17.3191 6.79866 14.7888 6.3552 11.9951 7.38954C9.9458 8.33204 8.51876 9.85937 7.71401 11.9715C6.39894 10.9925 5.10099 9.99062 3.82076 8.96641C3.73179 8.91958 3.63017 8.90243 3.53076 8.91747C5.56439 4.99643 8.7423 2.66435 13.0645 1.92122" fill="#F44336"/>
<path opacity="0.997" fill-rule="evenodd" clip-rule="evenodd" d="M3.52709 8.91746C3.6298 8.90175 3.72707 8.91807 3.81891 8.9664C5.09913 9.99061 6.39708 10.9925 7.71216 11.9715C7.50521 12.7945 7.37476 13.6348 7.32247 14.4818C7.36718 15.3011 7.49707 16.1052 7.71216 16.8943L3.62497 20.1477C1.84509 16.4285 1.81247 12.685 3.52709 8.91746Z" fill="#FFC107"/>
<path opacity="0.999" fill-rule="evenodd" clip-rule="evenodd" d="M22.9916 24.0881C21.719 22.9657 20.3867 21.913 19.0005 20.9343C20.3901 19.9532 21.2335 18.6071 21.5308 16.8961H14.7212V12.1673C18.6483 12.1346 22.5735 12.1679 26.497 12.267C27.2413 16.3088 26.3816 19.9532 23.9178 23.2C23.6249 23.5114 23.3145 23.8078 22.9916 24.0881Z" fill="#448AFF"/>
<path opacity="0.993" fill-rule="evenodd" clip-rule="evenodd" d="M7.71219 16.8961C9.19844 20.59 11.9232 22.3143 15.8866 22.069C16.9991 21.9402 18.0658 21.5515 19.0004 20.9344C20.3876 21.9155 21.718 22.9668 22.9916 24.0881C20.9736 25.9014 18.4007 26.9774 15.6926 27.1404C15.0774 27.1896 14.4591 27.1896 13.8439 27.1404C9.23046 26.5966 5.82417 24.2657 3.625 20.1477L7.71219 16.8961Z" fill="#43A047"/>
</svg>
