<svg width="48" height="48" viewBox="0 0 48 48" fill="none" xmlns="http://www.w3.org/2000/svg">
<rect width="48" height="48" rx="10" fill="#7D6796"/>
<path d="M31.7782 24C33.5575 24 35.0453 25.4724 34.5315 27.176C34.1157 28.5549 33.4301 29.8489 32.5031 30.9783C30.8886 32.9456 28.642 34.2922 26.146 34.7886C23.65 35.2851 21.059 34.9008 18.8146 33.7011C16.5702 32.5015 14.8112 30.5607 13.8373 28.2095C12.8634 25.8583 12.7349 23.2422 13.4737 20.8069C14.2124 18.3715 15.7727 16.2677 17.8887 14.8538C20.0047 13.44 22.5455 12.8035 25.0782 13.053C26.5323 13.1962 27.9321 13.6263 29.2011 14.3073C30.769 15.1486 30.7582 17.2418 29.5 18.5C27.4704 20.5296 28.9078 24 31.7782 24Z" fill="#FFFDFB"/>
</svg>
