<svg width="92" height="84" viewBox="0 0 92 84" fill="none" xmlns="http://www.w3.org/2000/svg">
<rect y="3.43322e-05" width="42.6545" height="83.9999" rx="10" fill="#FEB863"/>
<rect x="49.3454" y="49.5601" width="42.6545" height="34.44" rx="10" fill="#FEB863"/>
<path d="M85.7397 21.42C89.1971 21.42 92.0876 24.2804 91.0953 27.5923C90.2894 30.2819 88.9587 32.8059 87.1588 35.0087C84.0286 38.8394 79.6727 41.4616 74.8334 42.4284C69.994 43.3952 64.9706 42.6468 60.619 40.3107C56.2675 37.9747 52.8571 34.1955 50.9688 29.6171C49.0806 25.0387 48.8314 19.9444 50.2637 15.2021C51.696 10.4599 54.7212 6.36315 58.8238 3.60995C62.9265 0.856754 67.8527 -0.382558 72.7631 0.103177C75.5829 0.382117 78.2974 1.22003 80.7583 2.54654C83.8029 4.18764 83.7698 8.26588 81.3295 10.7168C77.399 14.6644 80.1691 21.42 85.7397 21.42Z" fill="#B1A3C0"/>
</svg>
